<?xml version="1.0" encoding="UTF-8" standalone="no"?>
<!DOCTYPE svg PUBLIC "-//W3C//DTD SVG 1.1//EN" "http://www.w3.org/Graphics/SVG/1.1/DTD/svg11.dtd">
<svg version="1.1" xmlns:xl="http://www.w3.org/1999/xlink" xmlns:dc="http://purl.org/dc/elements/1.1/" xmlns="http://www.w3.org/2000/svg" viewBox="-1717 -457 2021 2046" width="2021" height="2046">
  <defs/>
  <metadata> Produced by OmniGraffle 7.16 
    <dc:date>2020-07-05 04:50:43 +0000</dc:date>
  </metadata>
  <g id="trial_2" fill="none" stroke="none" fill-opacity="1" stroke-dasharray="none" stroke-opacity="1">
    <title>trial 2</title>
    <g id="trial_2: Layer 1">
      <title>Layer 1</title>
      <g id="Group_261">
        <title>Canvas_1</title>
        <g id="Group_263">
          <title>Group_2</title>
          <g id="Group_264">
            <title>Graphic_3</title>
            <g id="Graphic_265">
              <path d="M -1054.2035 -188.35819 C -1056.0673 -188.35819 -1057.5761 -186.84828 -1057.5761 -184.98482 C -1057.5757 -183.1228 -1056.067 -181.6122 -1054.2035 -181.6122 C -1052.3418 -181.6122 -1050.8316 -183.1228 -1050.8316 -184.98482 C -1050.8316 -186.84863 -1052.3418 -188.35819 -1054.2035 -188.35819 Z M -1057.929 -180.7469 C -1060.3167 -180.7469 -1062.2703 -178.81187 -1062.2703 -176.42735 L -1062.2703 -165.96666 C -1062.2703 -165.1525 -1061.6294 -164.49114 -1060.8138 -164.49114 C -1059.9978 -164.49114 -1059.3368 -165.15178 -1059.3368 -165.96666 L -1059.3368 -175.39846 L -1058.5846 -175.39846 C -1058.5846 -175.39846 -1058.5674 -150.77272 -1058.5674 -149.15512 C -1058.5674 -148.0636 -1057.6806 -147.17607 -1056.5877 -147.17607 C -1055.4954 -147.17607 -1054.6104 -148.0636 -1054.6104 -149.15512 L -1054.6104 -164.3938 L -1053.798 -164.3938 L -1053.798 -149.15512 C -1053.798 -148.0636 -1052.913 -147.17607 -1051.8186 -147.17607 C -1050.7257 -147.17607 -1049.8328 -148.0636 -1049.8328 -149.15512 L -1049.8328 -175.39846 L -1049.0716 -175.39846 L -1049.0716 -165.96666 C -1049.0716 -165.1525 -1048.4095 -164.49114 -1047.595 -164.49114 C -1046.779 -164.49114 -1046.1373 -165.15178 -1046.1373 -165.96666 L -1046.1373 -176.42735 C -1046.1373 -178.81187 -1048.0924 -180.7469 -1050.478 -180.7469 Z" fill="#ccc"/>
            </g>
          </g>
        </g>
      </g>
      <g id="Group_1432">
        <title>Canvas_1</title>
        <g id="Group_1434">
          <title>Group_2</title>
          <g id="Group_1435">
            <title>Graphic_3</title>
            <g id="Graphic_1436">
              <path d="M -629.8833 -3 C -631.7471 -3 -633.2559 -1.4900894 -633.2559 .37336636 C -633.25555 2.2353903 -631.74675 3.7459802 -629.8833 3.7459802 C -628.0216 3.7459802 -626.5114 2.2353903 -626.5114 .37336636 C -626.5114 -1.490447 -628.0216 -3 -629.8833 -3 Z M -633.6088 4.6112873 C -635.9965 4.6112873 -637.95015 6.546317 -637.95015 8.930838 L -637.95015 19.391526 C -637.95015 20.205693 -637.3092 20.867045 -636.4936 20.867045 C -635.67765 20.867045 -635.01665 20.206409 -635.01665 19.391526 L -635.01665 9.959729 L -634.2644 9.959729 C -634.2644 9.959729 -634.2472 34.58547 -634.2472 36.203068 C -634.2472 37.294583 -633.3604 38.182115 -632.26745 38.182115 C -631.1752 38.182115 -630.2902 37.294583 -630.2902 36.203068 L -630.2902 20.96439 L -629.4778 20.96439 L -629.4778 36.203068 C -629.4778 37.294583 -628.5928 38.182115 -627.4984 38.182115 C -626.40546 38.182115 -625.51256 37.294583 -625.51256 36.203068 L -625.51256 9.959729 L -624.75136 9.959729 L -624.75136 19.391526 C -624.75136 20.205693 -624.0893 20.867045 -623.2748 20.867045 C -622.4588 20.867045 -621.81714 20.206409 -621.81714 19.391526 L -621.81714 8.930838 C -621.81714 6.546317 -623.7722 4.6112873 -626.1578 4.6112873 Z" fill="#ccc"/>
            </g>
          </g>
        </g>
      </g>
      <g id="Group_1439">
        <title>Canvas_1</title>
        <g id="Group_1441">
          <title>Group_2</title>
          <g id="Group_1442">
            <title>Graphic_3</title>
            <g id="Graphic_1443">
              <path d="M -719.8833 264 C -721.7471 264 -723.2559 265.5099 -723.2559 267.37337 C -723.25555 269.2354 -721.74675 270.74598 -719.8833 270.74598 C -718.0216 270.74598 -716.5114 269.2354 -716.5114 267.37337 C -716.5114 265.50955 -718.0216 264 -719.8833 264 Z M -723.6088 271.6113 C -725.9965 271.6113 -727.95015 273.54632 -727.95015 275.93084 L -727.95015 286.39153 C -727.95015 287.2057 -727.3092 287.86704 -726.4936 287.86704 C -725.67765 287.86704 -725.01665 287.2064 -725.01665 286.39153 L -725.01665 276.95973 L -724.2644 276.95973 C -724.2644 276.95973 -724.2472 301.58547 -724.2472 303.20307 C -724.2472 304.2946 -723.3604 305.1821 -722.26745 305.1821 C -721.1752 305.1821 -720.2902 304.2946 -720.2902 303.20307 L -720.2902 287.9644 L -719.4778 287.9644 L -719.4778 303.20307 C -719.4778 304.2946 -718.5928 305.1821 -717.4984 305.1821 C -716.4055 305.1821 -715.5126 304.2946 -715.5126 303.20307 L -715.5126 276.95973 L -714.7514 276.95973 L -714.7514 286.39153 C -714.7514 287.2057 -714.0893 287.86704 -713.2748 287.86704 C -712.4588 287.86704 -711.8171 287.2064 -711.8171 286.39153 L -711.8171 275.93084 C -711.8171 273.54632 -713.7722 271.6113 -716.1578 271.6113 Z" fill="#ccc"/>
            </g>
          </g>
        </g>
      </g>
      <g id="Group_1462">
        <title>Canvas_1</title>
        <g id="Group_1464">
          <title>Group_2</title>
          <g id="Group_1465">
            <title>Graphic_3</title>
            <g id="Graphic_1466">
              <path d="M -1708.8833 274 C -1710.7471 274 -1712.256 275.5099 -1712.256 277.37337 C -1712.2555 279.2354 -1710.7467 280.74598 -1708.8833 280.74598 C -1707.0216 280.74598 -1705.5114 279.2354 -1705.5114 277.37337 C -1705.5114 275.50955 -1707.0216 274 -1708.8833 274 Z M -1712.6088 281.6113 C -1714.9965 281.6113 -1716.9502 283.54632 -1716.9502 285.93084 L -1716.9502 296.39153 C -1716.9502 297.2057 -1716.3092 297.86704 -1715.4936 297.86704 C -1714.6776 297.86704 -1714.0166 297.2064 -1714.0166 296.39153 L -1714.0166 286.95973 L -1713.2644 286.95973 C -1713.2644 286.95973 -1713.2472 311.58547 -1713.2472 313.20307 C -1713.2472 314.2946 -1712.3604 315.1821 -1711.2675 315.1821 C -1710.1752 315.1821 -1709.2902 314.2946 -1709.2902 313.20307 L -1709.2902 297.9644 L -1708.4778 297.9644 L -1708.4778 313.20307 C -1708.4778 314.2946 -1707.5928 315.1821 -1706.4984 315.1821 C -1705.4055 315.1821 -1704.5126 314.2946 -1704.5126 313.20307 L -1704.5126 286.95973 L -1703.7514 286.95973 L -1703.7514 296.39153 C -1703.7514 297.2057 -1703.0893 297.86704 -1702.2748 297.86704 C -1701.4588 297.86704 -1700.8171 297.2064 -1700.8171 296.39153 L -1700.8171 285.93084 C -1700.8171 283.54632 -1702.7722 281.6113 -1705.1578 281.6113 Z" fill="#ccc"/>
            </g>
          </g>
        </g>
      </g>
      <g id="Group_1448">
        <title>Canvas_1</title>
        <g id="Group_1450">
          <title>Group_2</title>
          <g id="Group_1451">
            <title>Graphic_3</title>
            <g id="Graphic_1452">
              <path d="M -1374.5631 726.3582 C -1376.4269 726.3582 -1377.9357 727.8681 -1377.9357 729.73155 C -1377.9354 731.5936 -1376.4265 733.1042 -1374.5631 733.1042 C -1372.7014 733.1042 -1371.1912 731.5936 -1371.1912 729.73155 C -1371.1912 727.8677 -1372.7014 726.3582 -1374.5631 726.3582 Z M -1378.2886 733.9695 C -1380.6763 733.9695 -1382.63 735.9045 -1382.63 738.289 L -1382.63 748.7497 C -1382.63 749.5639 -1381.989 750.2252 -1381.1734 750.2252 C -1380.3574 750.2252 -1379.6965 749.5646 -1379.6965 748.7497 L -1379.6965 739.3179 L -1378.9442 739.3179 C -1378.9442 739.3179 -1378.927 763.9437 -1378.927 765.56125 C -1378.927 766.6528 -1378.0402 767.5403 -1376.9473 767.5403 C -1375.855 767.5403 -1374.97 766.6528 -1374.97 765.56125 L -1374.97 750.3226 L -1374.1576 750.3226 L -1374.1576 765.56125 C -1374.1576 766.6528 -1373.2726 767.5403 -1372.1782 767.5403 C -1371.0853 767.5403 -1370.1924 766.6528 -1370.1924 765.56125 L -1370.1924 739.3179 L -1369.4312 739.3179 L -1369.4312 748.7497 C -1369.4312 749.5639 -1368.7691 750.2252 -1367.9546 750.2252 C -1367.1386 750.2252 -1366.497 749.5646 -1366.497 748.7497 L -1366.497 738.289 C -1366.497 735.9045 -1368.452 733.9695 -1370.8376 733.9695 Z" fill="#ccc"/>
            </g>
          </g>
        </g>
      </g>
      <g id="Group_1483">
        <title>Canvas_1</title>
        <g id="Group_1485">
          <title>Group_2</title>
          <g id="Group_1486">
            <title>Graphic_3</title>
            <g id="Graphic_1487">
              <path d="M -216.8833 282 C -218.7471 282 -220.2559 283.5099 -220.2559 285.37337 C -220.25555 287.2354 -218.74675 288.74598 -216.8833 288.74598 C -215.02162 288.74598 -213.5114 287.2354 -213.5114 285.37337 C -213.5114 283.50955 -215.02162 282 -216.8833 282 Z M -220.60877 289.6113 C -222.99651 289.6113 -224.95015 291.5463 -224.95015 293.93084 L -224.95015 304.39153 C -224.95015 305.2057 -224.3092 305.86704 -223.4936 305.86704 C -222.67765 305.86704 -222.01665 305.2064 -222.01665 304.39153 L -222.01665 294.95973 L -221.2644 294.95973 C -221.2644 294.95973 -221.24722 319.58547 -221.24722 321.20307 C -221.24722 322.2946 -220.3604 323.1821 -219.26745 323.1821 C -218.17522 323.1821 -217.2902 322.2946 -217.2902 321.20307 L -217.2902 305.9644 L -216.47782 305.9644 L -216.47782 321.20307 C -216.47782 322.2946 -215.5928 323.1821 -214.4984 323.1821 C -213.40546 323.1821 -212.51256 322.2946 -212.51256 321.20307 L -212.51256 294.95973 L -211.75136 294.95973 L -211.75136 304.39153 C -211.75136 305.2057 -211.0893 305.86704 -210.27477 305.86704 C -209.45881 305.86704 -208.81714 305.2064 -208.81714 304.39153 L -208.81714 293.93084 C -208.81714 291.5463 -210.77222 289.6113 -213.1578 289.6113 Z" fill="#ccc"/>
            </g>
          </g>
        </g>
      </g>
      <g id="Group_1476">
        <title>Canvas_1</title>
        <g id="Group_1478">
          <title>Group_2</title>
          <g id="Group_1479">
            <title>Graphic_3</title>
            <g id="Graphic_1480">
              <path d="M 207.4369 467.3582 C 205.5731 467.3582 204.0643 468.8681 204.0643 470.73155 C 204.06465 472.5936 205.57345 474.10417 207.4369 474.10417 C 209.29857 474.10417 210.8088 472.5936 210.8088 470.73155 C 210.8088 468.86774 209.29857 467.3582 207.4369 467.3582 Z M 203.71143 474.9695 C 201.32368 474.9695 199.37005 476.9045 199.37005 479.289 L 199.37005 489.7497 C 199.37005 490.5639 200.011 491.22523 200.8266 491.22523 C 201.64255 491.22523 202.30355 490.5646 202.30355 489.7497 L 202.30355 480.3179 L 203.0558 480.3179 C 203.0558 480.3179 203.07298 504.94366 203.07298 506.56125 C 203.07298 507.65277 203.9598 508.5403 205.05274 508.5403 C 206.14498 508.5403 207.03 507.65277 207.03 506.56125 L 207.03 491.3226 L 207.84238 491.3226 L 207.84238 506.56125 C 207.84238 507.65277 208.7274 508.5403 209.8218 508.5403 C 210.91474 508.5403 211.80763 507.65277 211.80763 506.56125 L 211.80763 480.3179 L 212.56884 480.3179 L 212.56884 489.7497 C 212.56884 490.5639 213.2309 491.22523 214.04543 491.22523 C 214.86138 491.22523 215.50305 490.5646 215.50305 489.7497 L 215.50305 479.289 C 215.50305 476.9045 213.54798 474.9695 211.16239 474.9695 Z" fill="#ccc"/>
            </g>
          </g>
        </g>
      </g>
      <g id="Group_1469">
        <title>Canvas_1</title>
        <g id="Group_1471">
          <title>Group_2</title>
          <g id="Group_1472">
            <title>Graphic_3</title>
            <g id="Graphic_1473">
              <path d="M 295.1167 -457 C 293.2529 -457 291.7441 -455.4901 291.7441 -453.62663 C 291.74445 -451.7646 293.25325 -450.254 295.1167 -450.254 C 296.97838 -450.254 298.4886 -451.7646 298.4886 -453.62663 C 298.4886 -455.49045 296.97838 -457 295.1167 -457 Z M 291.39123 -449.3887 C 289.0035 -449.3887 287.04985 -447.4537 287.04985 -445.06916 L 287.04985 -434.60847 C 287.04985 -433.7943 287.6908 -433.13296 288.5064 -433.13296 C 289.32235 -433.13296 289.98335 -433.7936 289.98335 -434.60847 L 289.98335 -444.04027 L 290.7356 -444.04027 C 290.7356 -444.04027 290.75278 -419.41453 290.75278 -417.79693 C 290.75278 -416.7054 291.6396 -415.8179 292.73255 -415.8179 C 293.82478 -415.8179 294.7098 -416.7054 294.7098 -417.79693 L 294.7098 -433.0356 L 295.5222 -433.0356 L 295.5222 -417.79693 C 295.5222 -416.7054 296.4072 -415.8179 297.5016 -415.8179 C 298.59454 -415.8179 299.48744 -416.7054 299.48744 -417.79693 L 299.48744 -444.04027 L 300.24864 -444.04027 L 300.24864 -434.60847 C 300.24864 -433.7943 300.9107 -433.13296 301.72523 -433.13296 C 302.5412 -433.13296 303.18286 -433.7936 303.18286 -434.60847 L 303.18286 -445.06916 C 303.18286 -447.4537 301.2278 -449.3887 298.8422 -449.3887 Z" fill="#ccc"/>
            </g>
          </g>
        </g>
      </g>
      <g id="Group_1504">
        <title>Canvas_1</title>
        <g id="Group_1506">
          <title>Group_2</title>
          <g id="Group_1507">
            <title>Graphic_3</title>
            <g id="Graphic_1508">
              <path d="M -879.5237 633 C -881.3875 633 -882.8963 634.5099 -882.8963 636.3734 C -882.8959 638.2354 -881.3871 639.746 -879.5237 639.746 C -877.662 639.746 -876.1518 638.2354 -876.1518 636.3734 C -876.1518 634.50955 -877.662 633 -879.5237 633 Z M -883.2492 640.6113 C -885.6369 640.6113 -887.5905 642.5463 -887.5905 644.93084 L -887.5905 655.3915 C -887.5905 656.2057 -886.9496 656.86704 -886.134 656.86704 C -885.318 656.86704 -884.657 656.2064 -884.657 655.3915 L -884.657 645.9597 L -883.9048 645.9597 C -883.9048 645.9597 -883.8876 670.5855 -883.8876 672.2031 C -883.8876 673.2946 -883.0008 674.1821 -881.9078 674.1821 C -880.8156 674.1821 -879.9306 673.2946 -879.9306 672.2031 L -879.9306 656.9644 L -879.1182 656.9644 L -879.1182 672.2031 C -879.1182 673.2946 -878.2332 674.1821 -877.1388 674.1821 C -876.0459 674.1821 -875.153 673.2946 -875.153 672.2031 L -875.153 645.9597 L -874.3918 645.9597 L -874.3918 655.3915 C -874.3918 656.2057 -873.7297 656.86704 -872.9152 656.86704 C -872.0992 656.86704 -871.4575 656.2064 -871.4575 655.3915 L -871.4575 644.93084 C -871.4575 642.5463 -873.4126 640.6113 -875.7982 640.6113 Z" fill="#ccc"/>
            </g>
          </g>
        </g>
      </g>
      <g id="Group_1497">
        <title>Canvas_1</title>
        <g id="Group_1499">
          <title>Group_2</title>
          <g id="Group_1500">
            <title>Graphic_3</title>
            <g id="Graphic_1501">
              <path d="M -545.2035 1085.3582 C -547.0673 1085.3582 -548.5761 1086.8681 -548.5761 1088.7316 C -548.57575 1090.5936 -547.06694 1092.1042 -545.2035 1092.1042 C -543.3418 1092.1042 -541.8316 1090.5936 -541.8316 1088.7316 C -541.8316 1086.8677 -543.3418 1085.3582 -545.2035 1085.3582 Z M -548.92897 1092.9695 C -551.3167 1092.9695 -553.27035 1094.9045 -553.27035 1097.289 L -553.27035 1107.7497 C -553.27035 1108.5639 -552.6294 1109.2252 -551.8138 1109.2252 C -550.99784 1109.2252 -550.33685 1108.5646 -550.33685 1107.7497 L -550.33685 1098.3179 L -549.5846 1098.3179 C -549.5846 1098.3179 -549.5674 1122.9437 -549.5674 1124.5613 C -549.5674 1125.6528 -548.6806 1126.5403 -547.58765 1126.5403 C -546.4954 1126.5403 -545.6104 1125.6528 -545.6104 1124.5613 L -545.6104 1109.3226 L -544.798 1109.3226 L -544.798 1124.5613 C -544.798 1125.6528 -543.913 1126.5403 -542.8186 1126.5403 C -541.72566 1126.5403 -540.83276 1125.6528 -540.83276 1124.5613 L -540.83276 1098.3179 L -540.07156 1098.3179 L -540.07156 1107.7497 C -540.07156 1108.5639 -539.4095 1109.2252 -538.595 1109.2252 C -537.779 1109.2252 -537.13734 1108.5646 -537.13734 1107.7497 L -537.13734 1097.289 C -537.13734 1094.9045 -539.0924 1092.9695 -541.478 1092.9695 Z" fill="#ccc"/>
            </g>
          </g>
        </g>
      </g>
      <g id="Group_1490">
        <title>Canvas_1</title>
        <g id="Group_1492">
          <title>Group_2</title>
          <g id="Group_1493">
            <title>Graphic_3</title>
            <g id="Graphic_1494">
              <path d="M -1199.8833 1547.7164 C -1201.7471 1547.7164 -1203.2559 1549.2263 -1203.2559 1551.0897 C -1203.2555 1552.9518 -1201.7467 1554.4624 -1199.8833 1554.4624 C -1198.0216 1554.4624 -1196.5114 1552.9518 -1196.5114 1551.0897 C -1196.5114 1549.226 -1198.0216 1547.7164 -1199.8833 1547.7164 Z M -1203.6088 1555.3277 C -1205.9965 1555.3277 -1207.9502 1557.2627 -1207.9502 1559.6472 L -1207.9502 1570.1079 C -1207.9502 1570.922 -1207.3092 1571.5834 -1206.4936 1571.5834 C -1205.6776 1571.5834 -1205.0166 1570.9228 -1205.0166 1570.1079 L -1205.0166 1560.6761 L -1204.2644 1560.6761 C -1204.2644 1560.6761 -1204.2472 1585.3018 -1204.2472 1586.9194 C -1204.2472 1588.011 -1203.3604 1588.8985 -1202.2675 1588.8985 C -1201.1752 1588.8985 -1200.2902 1588.011 -1200.2902 1586.9194 L -1200.2902 1571.6808 L -1199.4778 1571.6808 L -1199.4778 1586.9194 C -1199.4778 1588.011 -1198.5928 1588.8985 -1197.4984 1588.8985 C -1196.4055 1588.8985 -1195.5126 1588.011 -1195.5126 1586.9194 L -1195.5126 1560.6761 L -1194.7514 1560.6761 L -1194.7514 1570.1079 C -1194.7514 1570.922 -1194.0893 1571.5834 -1193.2748 1571.5834 C -1192.4588 1571.5834 -1191.8171 1570.9228 -1191.8171 1570.1079 L -1191.8171 1559.6472 C -1191.8171 1557.2627 -1193.7722 1555.3277 -1196.1578 1555.3277 Z" fill="#ccc"/>
            </g>
          </g>
        </g>
      </g>
    </g>
  </g>
</svg>
